# Blender v2.80 (sub 75) OBJ File: 'BajnocziBence_UNE00U.blend'
# www.blender.org
mtllib BajnocziBence_UNE00U.mtl
o Cube
v 0.511943 0.091260 -0.511943
v 1.000000 -0.091260 -1.000000
v 0.511943 0.091260 0.511943
v 1.000000 -0.091260 1.000000
v -0.511943 0.091260 -0.511943
v -1.000000 -0.091260 -1.000000
v -0.511943 0.091260 0.511943
v -1.000000 -0.091260 1.000000
v 1.000000 0.091260 1.000000
v -1.000000 0.091260 1.000000
v 1.000000 0.091260 -1.000000
v -1.000000 0.091260 -1.000000
v 0.511943 1.714475 0.511943
v -0.511943 1.714475 0.511943
v 0.511943 1.714475 -0.511943
v -0.511943 1.714475 -0.511943
v 0.511943 1.714475 0.511943
v -0.511943 1.714475 0.511943
v 0.511943 1.714475 -0.511943
v -0.511943 1.714475 -0.511943
v 0.190483 1.714475 -0.190483
v -0.190483 1.714475 -0.190483
v -0.190483 1.714475 0.190483
v 0.190483 1.714475 0.190483
v -0.190483 2.979980 -1.245070
v 0.190483 2.979980 -1.245070
v 0.190483 2.979980 -0.864104
v -0.190483 2.979980 -0.864104
v -0.190483 3.260008 -1.245070
v 0.190483 3.260008 -1.245070
v 0.190483 3.260008 -0.864104
v -0.190483 3.260008 -0.864104
v 0.190483 2.979980 0.190483
v -0.190483 2.979980 0.190483
v 0.190483 3.260008 0.190483
v -0.190483 3.260008 0.190483
v 0.511943 3.263557 0.511943
v -0.511943 3.263557 0.511943
v 0.190483 3.263557 0.190483
v -0.190483 3.263557 0.190483
v -0.007244 3.261435 -0.475188
v 0.085045 3.261435 -0.466098
v 0.173787 3.261435 -0.439179
v 0.255572 3.261435 -0.395464
v 0.327258 3.261435 -0.336633
v 0.386088 3.261435 -0.264948
v 0.429803 3.261435 -0.183162
v 0.456723 3.261435 -0.094420
v 0.465813 3.261435 -0.002131
v 0.456723 3.261435 0.090158
v 0.429803 3.261435 0.178900
v 0.386088 3.261435 0.260685
v 0.327258 3.261435 0.332370
v 0.255572 3.261435 0.391201
v 0.173787 3.261435 0.434916
v 0.085045 3.261435 0.461836
v -0.007244 3.261435 0.470925
v -0.099533 3.261435 0.461836
v -0.188275 3.261435 0.434916
v -0.270060 3.261435 0.391201
v -0.341745 3.261435 0.332370
v -0.400576 3.261435 0.260685
v -0.444291 3.261435 0.178900
v -0.471211 3.261435 0.090158
v -0.480301 3.261435 -0.002131
v -0.471211 3.261435 -0.094420
v -0.444291 3.261435 -0.183162
v -0.400576 3.261435 -0.264947
v -0.341745 3.261435 -0.336633
v -0.270060 3.261435 -0.395464
v -0.188275 3.261435 -0.439179
v -0.099533 3.261435 -0.466098
v -0.007244 4.207548 -0.002131
v -0.007564 3.008953 -0.900917
v -0.007564 8.663789 -0.900917
v 0.033784 3.008953 -0.904471
v 0.033784 8.663789 -0.904471
v 0.073544 3.008953 -0.914994
v 0.073544 8.663789 -0.914994
v 0.110186 3.008953 -0.932083
v 0.110186 8.663789 -0.932083
v 0.142303 3.008953 -0.955081
v 0.142303 8.663789 -0.955081
v 0.168661 3.008953 -0.983104
v 0.168661 8.663789 -0.983104
v 0.188247 3.008953 -1.015075
v 0.188247 8.663789 -1.015075
v 0.200308 3.008953 -1.049766
v 0.200308 8.663789 -1.049766
v 0.204380 3.008953 -1.085843
v 0.204380 8.663789 -1.085843
v 0.200308 3.008953 -1.121920
v 0.200308 8.663789 -1.121920
v 0.188247 3.008953 -1.156611
v 0.188247 8.663789 -1.156611
v 0.168661 3.008953 -1.188582
v 0.168661 8.663789 -1.188582
v 0.142303 3.008953 -1.216605
v 0.142303 8.663789 -1.216605
v 0.110186 3.008953 -1.239603
v 0.110186 8.663789 -1.239603
v 0.073544 3.008953 -1.256692
v 0.073544 8.663789 -1.256692
v 0.033784 3.008953 -1.267215
v 0.033784 8.663789 -1.267215
v -0.007564 3.008953 -1.270768
v -0.007564 8.663789 -1.270768
v -0.048912 3.008953 -1.267215
v -0.048912 8.663789 -1.267215
v -0.088671 3.008953 -1.256692
v -0.088671 8.663789 -1.256692
v -0.125314 3.008953 -1.239603
v -0.125314 8.663789 -1.239603
v -0.157431 3.008953 -1.216605
v -0.157431 8.663789 -1.216605
v -0.183789 3.008953 -1.188582
v -0.183789 8.663789 -1.188582
v -0.203375 3.008953 -1.156611
v -0.203375 8.663789 -1.156611
v -0.215435 3.008953 -1.121920
v -0.215435 8.663789 -1.121920
v -0.219508 3.008953 -1.085843
v -0.219508 8.663789 -1.085843
v -0.215435 3.008953 -1.049766
v -0.215435 8.663789 -1.049766
v -0.203375 3.008953 -1.015075
v -0.203375 8.663789 -1.015075
v -0.183789 3.008953 -0.983104
v -0.183789 8.663789 -0.983104
v -0.157431 3.008953 -0.955081
v -0.157431 8.663789 -0.955081
v -0.125314 3.008953 -0.932083
v -0.125314 8.663789 -0.932083
v -0.088671 3.008953 -0.914994
v -0.088671 8.663789 -0.914994
v -0.048912 3.008953 -0.904470
v -0.048912 8.663789 -0.904470
vt 0.813993 0.688993
vt 0.813993 0.561007
vt 0.813993 0.561007
vt 0.625000 0.750000
vt 0.375000 1.000000
vt 0.375000 0.750000
vt 0.625000 0.000000
vt 0.375000 0.250000
vt 0.375000 0.000000
vt 0.375000 0.500000
vt 0.125000 0.750000
vt 0.125000 0.500000
vt 0.625000 0.500000
vt 0.625000 0.250000
vt 0.686007 0.688993
vt 0.686007 0.561007
vt 0.875000 0.750000
vt 0.875000 0.500000
vt 0.813993 0.688993
vt 0.813993 0.561007
vt 0.813993 0.688993
vt 0.686007 0.561007
vt 0.686007 0.688993
vt 0.773810 0.601190
vt 0.773810 0.648810
vt 0.773810 0.601190
vt 0.686007 0.688993
vt 0.686007 0.561007
vt 0.726190 0.601190
vt 0.773810 0.648810
vt 0.726190 0.648810
vt 0.686007 0.688993
vt 0.726190 0.648810
vt 0.773810 0.648810
vt 0.726190 0.648810
vt 0.773810 0.648810
vt 0.726190 0.648810
vt 0.773810 0.648810
vt 0.726190 0.648810
vt 0.813993 0.688993
vt 0.726190 0.648810
vt 0.773810 0.648810
vt 0.250000 0.490000
vt 0.250000 0.250000
vt 0.296822 0.485388
vt 0.341844 0.471731
vt 0.383337 0.449553
vt 0.419706 0.419706
vt 0.449553 0.383337
vt 0.471731 0.341844
vt 0.485388 0.296822
vt 0.490000 0.250000
vt 0.485388 0.203178
vt 0.471731 0.158156
vt 0.449553 0.116663
vt 0.419706 0.080294
vt 0.383337 0.050447
vt 0.341844 0.028269
vt 0.296822 0.014612
vt 0.250000 0.010000
vt 0.203178 0.014612
vt 0.158156 0.028269
vt 0.116663 0.050447
vt 0.080294 0.080294
vt 0.050447 0.116663
vt 0.028269 0.158156
vt 0.014612 0.203178
vt 0.010000 0.250000
vt 0.014612 0.296822
vt 0.028269 0.341844
vt 0.050447 0.383337
vt 0.080294 0.419706
vt 0.116663 0.449553
vt 0.158156 0.471731
vt 0.796822 0.014612
vt 0.514611 0.203178
vt 0.703178 0.485388
vt 0.203178 0.485388
vt 1.000000 1.000000
vt 0.968750 0.500000
vt 1.000000 0.500000
vt 0.968750 1.000000
vt 0.937500 0.500000
vt 0.937500 1.000000
vt 0.906250 0.500000
vt 0.906250 1.000000
vt 0.875000 0.500000
vt 0.875000 1.000000
vt 0.843750 0.500000
vt 0.843750 1.000000
vt 0.812500 0.500000
vt 0.812500 1.000000
vt 0.781250 0.500000
vt 0.781250 1.000000
vt 0.750000 0.500000
vt 0.750000 1.000000
vt 0.718750 0.500000
vt 0.718750 1.000000
vt 0.687500 0.500000
vt 0.687500 1.000000
vt 0.656250 0.500000
vt 0.656250 1.000000
vt 0.625000 0.500000
vt 0.625000 1.000000
vt 0.593750 0.500000
vt 0.593750 1.000000
vt 0.562500 0.500000
vt 0.562500 1.000000
vt 0.531250 0.500000
vt 0.531250 1.000000
vt 0.500000 0.500000
vt 0.500000 1.000000
vt 0.468750 0.500000
vt 0.468750 1.000000
vt 0.437500 0.500000
vt 0.437500 1.000000
vt 0.406250 0.500000
vt 0.406250 1.000000
vt 0.375000 0.500000
vt 0.375000 1.000000
vt 0.343750 0.500000
vt 0.343750 1.000000
vt 0.312500 0.500000
vt 0.312500 1.000000
vt 0.281250 0.500000
vt 0.281250 1.000000
vt 0.250000 0.500000
vt 0.250000 1.000000
vt 0.218750 0.500000
vt 0.218750 1.000000
vt 0.187500 0.500000
vt 0.187500 1.000000
vt 0.156250 0.500000
vt 0.156250 1.000000
vt 0.125000 0.500000
vt 0.125000 1.000000
vt 0.093750 0.500000
vt 0.093750 1.000000
vt 0.062500 0.500000
vt 0.419706 0.419706
vt 0.383337 0.449553
vt 0.419706 0.080294
vt 0.062500 1.000000
vt 0.031250 0.500000
vt 0.031250 1.000000
vt 0.000000 0.500000
vt 0.616663 0.449553
vt 0.658156 0.471731
vt 0.616663 0.050447
vt 0.625000 1.000000
vt 0.726190 0.601190
vt 0.750000 0.490000
vt 0.796822 0.485388
vt 0.841844 0.471731
vt 0.883337 0.449553
vt 0.919706 0.419706
vt 0.985388 0.296822
vt 0.949553 0.383337
vt 0.971731 0.341844
vt 0.990000 0.250000
vt 0.985388 0.203178
vt 0.971731 0.158156
vt 0.949553 0.116663
vt 0.919706 0.080294
vt 0.883337 0.050447
vt 0.841844 0.028269
vt 0.750000 0.010000
vt 0.616663 0.050447
vt 0.703178 0.014612
vt 0.658156 0.028269
vt 0.580294 0.080294
vt 0.550447 0.116663
vt 0.528269 0.158156
vt 0.510000 0.250000
vt 0.514612 0.296822
vt 0.528269 0.341844
vt 0.550447 0.383337
vt 0.580294 0.419706
vt 0.616663 0.449553
vt 0.658156 0.471731
vt 0.341844 0.471731
vt 0.296822 0.485388
vt 0.296822 0.014612
vt 0.250000 0.490000
vt 0.250000 0.010000
vt 0.203178 0.485388
vt 0.203178 0.014612
vt 0.158156 0.471731
vt 0.158156 0.028269
vt 0.116663 0.449553
vt 0.080294 0.419706
vt 0.116663 0.050447
vt 0.050447 0.383337
vt 0.080294 0.080294
vt 0.028269 0.341844
vt 0.050447 0.116663
vt 0.014612 0.296822
vt 0.028269 0.158156
vt 0.010000 0.250000
vt 0.014612 0.203178
vt 0.341844 0.028269
vt 0.383337 0.050447
vt 0.449553 0.116663
vt 0.471731 0.158156
vt 0.449553 0.383337
vt 0.485388 0.203178
vt 0.471731 0.341844
vt 0.490000 0.250000
vt 0.485388 0.296822
vt 0.000000 1.000000
vt 0.703178 0.485388
vt 0.750000 0.490000
vt 0.750000 0.010000
vt 0.796822 0.485388
vt 0.796822 0.014612
vt 0.841844 0.471731
vt 0.883337 0.449553
vt 0.841844 0.028269
vt 0.919706 0.419706
vt 0.919706 0.080294
vt 0.949553 0.383337
vt 0.949553 0.116663
vt 0.971731 0.341844
vt 0.985388 0.296822
vt 0.971731 0.158156
vt 0.990000 0.250000
vt 0.985388 0.203178
vt 0.883337 0.050447
vt 0.703178 0.014612
vt 0.658156 0.028269
vt 0.580294 0.080294
vt 0.580294 0.419706
vt 0.550447 0.116663
vt 0.550447 0.383337
vt 0.528269 0.158156
vt 0.514612 0.203178
vt 0.528269 0.341844
vt 0.510000 0.250000
vt 0.514612 0.296822
vn -1.0000 0.0000 0.0000
vn 0.0000 0.0000 1.0000
vn 0.0000 -1.0000 0.0000
vn 1.0000 0.0000 0.0000
vn 0.0000 0.0000 -1.0000
vn 0.0000 1.0000 0.0000
vn 0.7071 0.0000 -0.7071
vn 0.0000 0.6402 0.7682
vn -0.7071 0.0000 -0.7071
vn 0.0878 0.4455 -0.8910
vn 0.2599 0.4455 -0.8567
vn 0.4220 0.4455 -0.7896
vn 0.5680 0.4455 -0.6921
vn 0.6921 0.4455 -0.5680
vn 0.7896 0.4455 -0.4220
vn 0.8567 0.4455 -0.2599
vn 0.8910 0.4455 -0.0878
vn 0.8910 0.4455 0.0878
vn 0.8567 0.4455 0.2599
vn 0.7896 0.4455 0.4220
vn 0.6921 0.4455 0.5680
vn 0.5680 0.4455 0.6921
vn 0.4220 0.4455 0.7896
vn 0.2599 0.4455 0.8567
vn 0.0878 0.4455 0.8910
vn -0.0878 0.4455 0.8910
vn -0.2599 0.4455 0.8567
vn -0.4220 0.4455 0.7896
vn -0.5680 0.4455 0.6921
vn -0.6921 0.4455 0.5680
vn -0.7896 0.4455 0.4220
vn -0.8567 0.4455 0.2599
vn -0.8910 0.4455 0.0878
vn -0.8910 0.4455 -0.0878
vn -0.8567 0.4455 -0.2599
vn -0.7896 0.4455 -0.4220
vn -0.6921 0.4455 -0.5680
vn -0.5680 0.4455 -0.6921
vn -0.4220 0.4455 -0.7896
vn -0.2599 0.4455 -0.8567
vn -0.0878 0.4455 -0.8910
vn -0.0856 0.0000 -0.9963
vn -0.2559 0.0000 -0.9667
vn -0.4227 0.0000 -0.9063
vn -0.5822 0.0000 -0.8130
vn -0.7284 0.0000 -0.6851
vn -0.8527 0.0000 -0.5224
vn -0.9445 0.0000 -0.3284
vn -0.9937 0.0000 -0.1122
vn -0.9937 0.0000 0.1122
vn -0.9445 0.0000 0.3284
vn -0.8527 0.0000 0.5224
vn -0.7284 0.0000 0.6851
vn -0.5822 0.0000 0.8130
vn -0.4227 0.0000 0.9063
vn -0.2559 0.0000 0.9667
vn -0.0856 0.0000 0.9963
vn 0.0856 0.0000 0.9963
vn 0.2559 0.0000 0.9667
vn 0.4227 0.0000 0.9063
vn 0.5822 0.0000 0.8131
vn 0.7284 0.0000 0.6851
vn 0.8527 0.0000 0.5224
vn 0.9445 0.0000 0.3284
vn 0.9937 0.0000 0.1122
vn 0.9937 0.0000 -0.1122
vn 0.9445 0.0000 -0.3284
vn 0.8527 0.0000 -0.5224
vn 0.7284 0.0000 -0.6851
vn 0.5822 0.0000 -0.8131
vn 0.4227 0.0000 -0.9063
vn 0.2559 0.0000 -0.9667
vn 0.0856 0.0000 -0.9963
vn -0.5822 0.0000 -0.8131
vn -0.5822 0.0000 0.8131
vn 0.5822 0.0000 0.8130
usemtl Material
s off
f 7/1/1 16/2/1 5/3/1
f 9/4/2 8/5/2 4/6/2
f 10/7/1 6/8/1 8/9/1
f 2/10/3 8/11/3 6/12/3
f 11/13/4 4/6/4 2/10/4
f 12/14/5 2/10/5 6/8/5
f 7/1/6 9/4/6 3/15/6
f 3/15/6 11/13/6 1/16/6
f 5/3/6 10/17/6 7/1/6
f 1/16/6 12/18/6 5/3/6
f 16/2/2 18/19/2 20/20/2
f 3/15/2 14/21/2 7/1/2
f 5/3/5 15/22/5 1/16/5
f 1/16/4 13/23/4 3/15/4
f 22/24/1 28/25/1 25/26/1
f 14/21/2 17/27/2 18/19/2
f 15/22/2 20/20/2 19/28/2
f 13/23/2 19/28/2 17/27/2
f 19/28/6 22/24/6 21/29/6
f 20/20/6 23/30/6 22/24/6
f 24/31/7 37/32/7 17/27/7
f 17/27/6 21/29/6 24/31/6
f 27/33/3 34/34/3 28/25/3
f 24/31/8 28/25/8 23/30/8
f 21/29/4 27/33/4 24/31/4
f 33/35/2 36/36/2 34/34/2
f 31/37/4 33/35/4 27/33/4
f 28/25/1 36/36/1 32/38/1
f 32/38/6 35/39/6 31/37/6
f 38/40/6 39/41/6 40/42/6
f 17/27/2 38/40/2 18/19/2
f 23/30/5 39/41/5 24/31/5
f 18/19/9 40/42/9 23/30/9
f 41/43/10 73/44/10 42/45/10
f 42/45/11 73/44/11 43/46/11
f 43/46/12 73/44/12 44/47/12
f 44/47/13 73/44/13 45/48/13
f 45/48/14 73/44/14 46/49/14
f 46/49/15 73/44/15 47/50/15
f 47/50/16 73/44/16 48/51/16
f 48/51/17 73/44/17 49/52/17
f 49/52/18 73/44/18 50/53/18
f 50/53/19 73/44/19 51/54/19
f 51/54/20 73/44/20 52/55/20
f 52/55/21 73/44/21 53/56/21
f 53/56/22 73/44/22 54/57/22
f 54/57/23 73/44/23 55/58/23
f 55/58/24 73/44/24 56/59/24
f 56/59/25 73/44/25 57/60/25
f 57/60/26 73/44/26 58/61/26
f 58/61/27 73/44/27 59/62/27
f 59/62/28 73/44/28 60/63/28
f 60/63/29 73/44/29 61/64/29
f 61/64/30 73/44/30 62/65/30
f 62/65/31 73/44/31 63/66/31
f 63/66/32 73/44/32 64/67/32
f 64/67/33 73/44/33 65/68/33
f 65/68/34 73/44/34 66/69/34
f 66/69/35 73/44/35 67/70/35
f 67/70/36 73/44/36 68/71/36
f 68/71/37 73/44/37 69/72/37
f 69/72/38 73/44/38 70/73/38
f 70/73/39 73/44/39 71/74/39
f 56/75/3 64/76/3 72/77/3
f 71/74/40 73/44/40 72/78/40
f 72/78/41 73/44/41 41/43/41
f 75/79/42 76/80/42 74/81/42
f 77/82/43 78/83/43 76/80/43
f 79/84/44 80/85/44 78/83/44
f 81/86/45 82/87/45 80/85/45
f 83/88/46 84/89/46 82/87/46
f 85/90/47 86/91/47 84/89/47
f 87/92/48 88/93/48 86/91/48
f 89/94/49 90/95/49 88/93/49
f 91/96/50 92/97/50 90/95/50
f 93/98/51 94/99/51 92/97/51
f 95/100/52 96/101/52 94/99/52
f 97/102/53 98/103/53 96/101/53
f 99/104/54 100/105/54 98/103/54
f 101/106/55 102/107/55 100/105/55
f 103/108/56 104/109/56 102/107/56
f 105/110/57 106/111/57 104/109/57
f 107/112/58 108/113/58 106/111/58
f 109/114/59 110/115/59 108/113/59
f 111/116/60 112/117/60 110/115/60
f 113/118/61 114/119/61 112/117/61
f 115/120/62 116/121/62 114/119/62
f 117/122/63 118/123/63 116/121/63
f 119/124/64 120/125/64 118/123/64
f 121/126/65 122/127/65 120/125/65
f 123/128/66 124/129/66 122/127/66
f 125/130/67 126/131/67 124/129/67
f 127/132/68 128/133/68 126/131/68
f 129/134/69 130/135/69 128/133/69
f 131/136/70 132/137/70 130/135/70
f 133/138/71 134/139/71 132/137/71
f 83/140/3 81/141/3 99/142/3
f 135/143/72 136/144/72 134/139/72
f 137/145/73 74/146/73 136/144/73
f 132/147/6 134/148/6 112/149/6
f 7/1/1 14/21/1 16/2/1
f 9/4/2 10/150/2 8/5/2
f 10/7/1 12/14/1 6/8/1
f 2/10/3 4/6/3 8/11/3
f 11/13/4 9/4/4 4/6/4
f 12/14/5 11/13/5 2/10/5
f 7/1/6 10/17/6 9/4/6
f 3/15/6 9/4/6 11/13/6
f 5/3/6 12/18/6 10/17/6
f 1/16/6 11/13/6 12/18/6
f 16/2/2 14/21/2 18/19/2
f 3/15/2 13/23/2 14/21/2
f 5/3/5 16/2/5 15/22/5
f 1/16/4 15/22/4 13/23/4
f 22/24/1 23/30/1 28/25/1
f 14/21/2 13/23/2 17/27/2
f 15/22/2 16/2/2 20/20/2
f 13/23/2 15/22/2 19/28/2
f 19/28/6 20/20/6 22/24/6
f 20/20/6 18/19/6 23/30/6
f 24/31/7 39/41/7 37/32/7
f 17/27/6 19/28/6 21/29/6
f 27/33/3 33/35/3 34/34/3
f 24/31/8 27/33/8 28/25/8
f 21/29/4 26/151/4 27/33/4
f 33/35/2 35/39/2 36/36/2
f 31/37/4 35/39/4 33/35/4
f 28/25/1 34/34/1 36/36/1
f 32/38/6 36/36/6 35/39/6
f 38/40/6 37/32/6 39/41/6
f 17/27/2 37/32/2 38/40/2
f 23/30/5 40/42/5 39/41/5
f 18/19/9 38/40/9 40/42/9
f 72/77/3 41/152/3 42/153/3
f 42/153/3 43/154/3 44/155/3
f 44/155/3 45/156/3 48/157/3
f 45/156/3 46/158/3 48/157/3
f 46/158/3 47/159/3 48/157/3
f 48/157/3 49/160/3 50/161/3
f 50/161/3 51/162/3 48/157/3
f 51/162/3 52/163/3 48/157/3
f 52/163/3 53/164/3 56/75/3
f 53/164/3 54/165/3 56/75/3
f 54/165/3 55/166/3 56/75/3
f 56/75/3 57/167/3 60/168/3
f 57/167/3 58/169/3 60/168/3
f 58/169/3 59/170/3 60/168/3
f 60/168/3 61/171/3 64/76/3
f 61/171/3 62/172/3 64/76/3
f 62/172/3 63/173/3 64/76/3
f 64/76/3 65/174/3 66/175/3
f 66/175/3 67/176/3 64/76/3
f 67/176/3 68/177/3 64/76/3
f 68/177/3 69/178/3 72/77/3
f 69/178/3 70/179/3 72/77/3
f 70/179/3 71/180/3 72/77/3
f 72/77/3 42/153/3 48/157/3
f 42/153/3 44/155/3 48/157/3
f 48/157/3 52/163/3 56/75/3
f 56/75/3 60/168/3 64/76/3
f 64/76/3 68/177/3 72/77/3
f 72/77/3 48/157/3 56/75/3
f 75/79/42 77/82/42 76/80/42
f 77/82/43 79/84/43 78/83/43
f 79/84/44 81/86/44 80/85/44
f 81/86/74 83/88/74 82/87/74
f 83/88/46 85/90/46 84/89/46
f 85/90/47 87/92/47 86/91/47
f 87/92/48 89/94/48 88/93/48
f 89/94/49 91/96/49 90/95/49
f 91/96/50 93/98/50 92/97/50
f 93/98/51 95/100/51 94/99/51
f 95/100/52 97/102/52 96/101/52
f 97/102/53 99/104/53 98/103/53
f 99/104/75 101/106/75 100/105/75
f 101/106/55 103/108/55 102/107/55
f 103/108/56 105/110/56 104/109/56
f 105/110/57 107/112/57 106/111/57
f 107/112/58 109/114/58 108/113/58
f 109/114/59 111/116/59 110/115/59
f 111/116/60 113/118/60 112/117/60
f 113/118/76 115/120/76 114/119/76
f 115/120/62 117/122/62 116/121/62
f 117/122/63 119/124/63 118/123/63
f 119/124/64 121/126/64 120/125/64
f 121/126/65 123/128/65 122/127/65
f 123/128/66 125/130/66 124/129/66
f 125/130/67 127/132/67 126/131/67
f 127/132/68 129/134/68 128/133/68
f 129/134/69 131/136/69 130/135/69
f 131/136/70 133/138/70 132/137/70
f 133/138/71 135/143/71 134/139/71
f 79/181/3 77/182/3 105/183/3
f 77/182/3 75/184/3 107/185/3
f 75/184/3 137/186/3 109/187/3
f 137/186/3 135/188/3 111/189/3
f 135/188/3 133/190/3 111/189/3
f 133/190/3 131/191/3 113/192/3
f 111/189/3 133/190/3 113/192/3
f 131/191/3 129/193/3 115/194/3
f 129/193/3 127/195/3 117/196/3
f 115/194/3 129/193/3 117/196/3
f 127/195/3 125/197/3 119/198/3
f 125/197/3 123/199/3 121/200/3
f 119/198/3 125/197/3 121/200/3
f 119/198/3 117/196/3 127/195/3
f 115/194/3 113/192/3 131/191/3
f 111/189/3 109/187/3 137/186/3
f 109/187/3 107/185/3 75/184/3
f 107/185/3 105/183/3 77/182/3
f 105/183/3 103/201/3 79/181/3
f 103/201/3 101/202/3 79/181/3
f 101/202/3 99/142/3 81/141/3
f 79/181/3 101/202/3 81/141/3
f 99/142/3 97/203/3 83/140/3
f 97/203/3 95/204/3 85/205/3
f 83/140/3 97/203/3 85/205/3
f 95/204/3 93/206/3 87/207/3
f 93/206/3 91/208/3 89/209/3
f 87/207/3 93/206/3 89/209/3
f 87/207/3 85/205/3 95/204/3
f 135/143/72 137/145/72 136/144/72
f 137/145/73 75/210/73 74/146/73
f 136/211/6 74/212/6 106/213/6
f 74/212/6 76/214/6 104/215/6
f 76/214/6 78/216/6 104/215/6
f 78/216/6 80/217/6 102/218/6
f 104/215/6 78/216/6 102/218/6
f 80/217/6 82/219/6 98/220/6
f 82/219/6 84/221/6 96/222/6
f 84/221/6 86/223/6 96/222/6
f 86/223/6 88/224/6 94/225/6
f 96/222/6 86/223/6 94/225/6
f 88/224/6 90/226/6 92/227/6
f 92/227/6 94/225/6 88/224/6
f 96/222/6 98/220/6 82/219/6
f 98/220/6 100/228/6 80/217/6
f 100/228/6 102/218/6 80/217/6
f 104/215/6 106/213/6 74/212/6
f 106/213/6 108/229/6 136/211/6
f 108/229/6 110/230/6 136/211/6
f 110/230/6 112/149/6 134/148/6
f 136/211/6 110/230/6 134/148/6
f 112/149/6 114/231/6 130/232/6
f 114/231/6 116/233/6 128/234/6
f 116/233/6 118/235/6 128/234/6
f 118/235/6 120/236/6 126/237/6
f 128/234/6 118/235/6 126/237/6
f 120/236/6 122/238/6 124/239/6
f 124/239/6 126/237/6 120/236/6
f 128/234/6 130/232/6 114/231/6
f 130/232/6 132/147/6 112/149/6
